<?xml version="1.0" encoding="UTF-8"?>
<svg id="Layer_1" data-name="Layer 1" xmlns="http://www.w3.org/2000/svg" viewBox="0 0 360 379.27">
  <defs>
    <style>
      .cls-1 {
        fill: #15252d;
      }

      .cls-1, .cls-2 {
        stroke-width: 0px;
      }

      .cls-2 {
        fill: #fee9db;
      }
    </style>
  </defs>
  <circle class="cls-2" cx="180" cy="190.11" r="178.41"/>
  <g>
    <path class="cls-1" d="M54.6,183.2c.53-3.99,1-8,1.6-11.98,3.74-24.68,14.02-46.35,30.67-64.88,17.17-19.12,38.35-31.82,63.34-37.9,29.51-7.17,57.97-3.93,85.28,9.31,2.13,1.03,3.67,1.32,5.94-.02,6.22-3.67,13.91-2.12,18.98,3.34,4.71,5.08,5.33,12.89,1.49,18.82-3.92,6.05-11.19,8.67-18.01,6.46-6.75-2.18-11.24-8.7-10.66-15.84.16-1.91-.44-2.76-2.1-3.59-41.44-20.77-92.92-13.9-127.45,17.08-20.48,18.37-32.9,41.2-37.38,68.3-8.04,48.62,17.48,98.37,61.66,120.45,45.41,22.7,98.7,14.09,134.3-22.06,18.04-18.31,28.66-40.44,31.93-66,3.17-24.8-1.43-48.14-13.31-70.09-1.82-3.36-1.29-6.24,1.43-7.82,2.84-1.64,5.64-.55,7.58,2.93,24.92,44.69,19.4,101.76-13.7,140.84-20.39,24.08-46.21,38.96-77.4,43.45-38.48,5.55-72.79-4.59-102.05-30.34-23.11-20.33-36.37-46.17-40.92-76.54-.51-3.38-.83-6.79-1.24-10.19,0-4.58,0-9.16,0-13.74Z"/>
    <path class="cls-1" d="M240.5,242.9c-8.52,0-16.79.05-25.07-.08-.68-.01-1.68-1.09-1.95-1.87-6.27-17.63-12.47-35.3-18.67-52.96-4.84-13.75-9.67-27.51-14.79-42.07-6.37,18.1-12.5,35.5-18.73,53.2,7.9,0,15.47.12,23.03-.07,2.4-.06,3.34.8,4.03,2.94,1.83,5.67,3.9,11.27,6.01,17.31-1.18.07-2.09.16-2.99.16-11.54,0-23.08.05-34.62-.04-2-.02-2.87.6-3.51,2.54-2.31,6.99-4.87,13.91-7.34,20.87h-26.37c.33-1.11.57-2.08.9-3.03,12.86-36.55,25.75-73.1,38.55-109.67.67-1.92,1.55-2.48,3.55-2.46,11.72.1,23.43.1,35.15,0,1.95-.02,2.72.66,3.33,2.4,12.94,36.9,25.94,73.78,38.92,110.67.2.57.31,1.17.57,2.15Z"/>
  </g>
</svg>