<?xml version="1.0" encoding="UTF-8"?>
<svg id="Layer_1" data-name="Layer 1" xmlns="http://www.w3.org/2000/svg" viewBox="0 0 360 379.27">
  <defs>
    <style>
      .cls-1 {
        fill: #000;
      }

      .cls-1, .cls-2 {
        stroke-width: 0px;
      }

      .cls-2 {
        fill: #064163;
      }
    </style>
  </defs>
  <path class="cls-1" d="M174.82,187.47c-15.02-6.09-29.6-6.05-44.46-.36,0-5.8,0-11.24,0-16.69,0-14.17-.19-28.33.08-42.49.4-20.64,4.29-40.56,14.05-58.96,11.28-21.27,28.31-36.24,50.9-44.56,29.84-10.99,60.3-11.43,90.53-2.5,32.3,9.54,54.04,30.77,64.88,62.94,4.79,14.22,6.95,28.89,7.06,43.75.28,40.75.1,81.51.1,122.26,0,.79-.07,1.59-.12,2.67h-44.29v-3.99c0-39.13.1-78.26-.05-117.39-.05-13.66-2.14-27.01-8.04-39.54-9.19-19.5-24.83-30.36-45.7-34.06-13.55-2.4-27.09-1.97-40.28,2.1-18.4,5.68-31.17,17.62-38.39,35.55-4.35,10.81-6.14,22.07-6.21,33.63-.1,17.76-.05,35.53-.06,53.29,0,1.27,0,2.54,0,4.37Z"/>
  <path class="cls-2" d="M38.36,266.86c4.6,1.04,9.27,1.81,13.78,3.16,10.87,3.26,21.84,4.81,32.8,1.08,12.61-4.29,21.94-12.32,24.46-25.99,2.67-14.51-5.39-28.33-19.21-34.73-10.6-4.9-21.48-5.21-32.58-2.36-6.94,1.78-13.67,4.32-21.06,3.86-14.29-.88-25-7.61-31.66-20.03-7.11-13.25-6.45-26.7,2.1-39.14,9.51-13.83,23.06-18.91,39.41-15.89,14.88,2.74,26.33,14.98,29.54,30.68,2.22,10.87,6.46,20.74,14.52,28.7,8.47,8.36,18.86,11.8,30.43,10.94,6.98-.52,13.96-2.07,20.74-3.9,17.39-4.69,33.72,1.7,43.65,17.55,8.14,13,6.13,32.18-4.64,44.38-10,11.32-26.66,15.55-40.99,10.46-9.23-3.28-18.76-4.5-28.41-2.88-14.56,2.44-24.45,11.18-30.33,24.4-2.33,5.24-3.98,10.86-5.33,16.45-4.56,18.89-21.35,31.37-40.53,29.84-18.32-1.46-33.47-16.59-34.7-35.38-1.45-22.15,16.21-40.73,38.04-41.21Z"/>
</svg>